<svg width="41" height="20" viewBox="0 0 41 20" fill="none" xmlns="http://www.w3.org/2000/svg">
<path d="M40.9945 17.1578C40.9945 17.8237 40.7608 18.4614 40.3225 18.9714C40.0742 19.2548 39.7818 19.4956 39.4312 19.6656C39.0952 19.8498 38.73 19.949 38.3355 19.9915C37.9557 20.0198 37.5758 19.9774 37.2106 19.864C36.8454 19.7648 36.4949 19.5807 36.2027 19.3398L20.542 6.64486L4.85205 18.8863C4.55987 19.1272 4.20934 19.2972 3.84412 19.4105C3.46429 19.5097 3.08441 19.5382 2.70458 19.5098C2.32475 19.4673 1.94492 19.354 1.60891 19.1698C1.27291 18.9998 0.965979 18.7589 0.732237 18.4614C0.469277 18.1638 0.264895 17.8237 0.148023 17.4553C0.0165432 17.0869 -0.0274119 16.6903 0.0164148 16.2936C0.0602415 15.911 0.177113 15.5426 0.381637 15.2026C0.586162 14.8626 0.849179 14.565 1.17058 14.3242L18.7013 0.637506C19.2272 0.226625 19.8846 -8.69184e-07 20.5566 -8.98558e-07C21.2286 -9.27933e-07 21.8861 0.226624 22.412 0.637506L39.9427 14.8058C40.2933 15.0892 40.5709 15.4576 40.7608 15.8543C40.9362 16.2652 41.0237 16.7186 40.9945 17.1578Z" fill="white"/>
</svg>
