<svg width="20" height="41" viewBox="0 0 20 41" fill="none" xmlns="http://www.w3.org/2000/svg">
<path d="M17.1578 40.9945C17.8237 40.9945 18.4614 40.7608 18.9714 40.3225C19.2548 40.0742 19.4956 39.7818 19.6657 39.4312C19.8498 39.0952 19.949 38.73 19.9915 38.3355C20.0198 37.9557 19.9774 37.5758 19.864 37.2106C19.7648 36.8454 19.5807 36.4949 19.3398 36.2027L6.64487 20.542L18.8863 4.85205C19.1272 4.55987 19.2972 4.20934 19.4105 3.84412C19.5097 3.46429 19.5382 3.08441 19.5098 2.70458C19.4673 2.32475 19.354 1.94492 19.1698 1.60891C18.9998 1.27291 18.7589 0.965979 18.4614 0.732237C18.1638 0.469277 17.8237 0.264895 17.4553 0.148024C17.0869 0.0165434 16.6903 -0.0274117 16.2936 0.016415C15.911 0.0602417 15.5426 0.177113 15.2026 0.381638C14.8626 0.586162 14.565 0.84918 14.3242 1.17058L0.637506 18.7013C0.226625 19.2272 0 19.8846 0 20.5566C0 21.2286 0.226625 21.8861 0.637506 22.412L14.8058 39.9427C15.0892 40.2933 15.4576 40.5709 15.8543 40.7608C16.2652 40.9362 16.7186 41.0237 17.1578 40.9945Z" fill="url(#paint0_linear_275_726)"/>
<defs>
<linearGradient id="paint0_linear_275_726" x1="2.20588" y1="-25.2833" x2="23.1695" y2="-23.787" gradientUnits="userSpaceOnUse">
<stop stop-color="#A35CD4"/>
<stop offset="1" stop-color="#DE6EB5"/>
</linearGradient>
</defs>
</svg>
