<svg width="37" height="28" viewBox="0 0 37 28" fill="none" xmlns="http://www.w3.org/2000/svg">
<path d="M11.5 22.1L3.91671 14.5166C3.71841 14.3159 3.48224 14.1566 3.22189 14.0478C2.96154 13.939 2.6822 13.883 2.40004 13.883C2.11789 13.883 1.83854 13.939 1.57819 14.0478C1.31784 14.1566 1.08167 14.3159 0.883375 14.5166C0.682655 14.7149 0.523294 14.9511 0.414528 15.2115C0.305762 15.4718 0.249756 15.7512 0.249756 16.0333C0.249756 16.3155 0.305762 16.5948 0.414528 16.8552C0.523294 17.1155 0.682655 17.3517 0.883375 17.55L9.96171 26.6283C10.8067 27.4733 12.1717 27.4733 13.0167 26.6283L35.9834 3.68331C36.1841 3.48501 36.3435 3.24884 36.4522 2.98849C36.561 2.72814 36.617 2.4488 36.617 2.16664C36.617 1.88449 36.561 1.60514 36.4522 1.34479C36.3435 1.08444 36.1841 0.848276 35.9834 0.649976C35.7851 0.449257 35.5489 0.289895 35.2886 0.181129C35.0282 0.0723632 34.7489 0.0163574 34.4667 0.0163574C34.1846 0.0163574 33.9052 0.0723632 33.6449 0.181129C33.3845 0.289895 33.1483 0.449257 32.95 0.649976L11.5 22.1Z" fill="url(#paint0_linear_275_290)"/>
<defs>
<linearGradient id="paint0_linear_275_290" x1="32.6059" y1="-16.7852" x2="-4.3" y2="-9.57722" gradientUnits="userSpaceOnUse">
<stop stop-color="#A35CD4"/>
<stop offset="1" stop-color="#DE6EB5"/>
</linearGradient>
</defs>
</svg>
