<svg width="21" height="20" viewBox="0 0 21 20" fill="none" xmlns="http://www.w3.org/2000/svg">
<path d="M19.3984 8.75H11.8984V1.25C11.8984 0.918479 11.7667 0.600537 11.5323 0.366117C11.2979 0.131696 10.98 0 10.6484 0C10.3169 0 9.99897 0.131696 9.76455 0.366117C9.53013 0.600537 9.39844 0.918479 9.39844 1.25V8.75H1.89844C1.56692 8.75 1.24897 8.8817 1.01455 9.11612C0.780134 9.35054 0.648438 9.66848 0.648438 10C0.648438 10.3315 0.780134 10.6495 1.01455 10.8839C1.24897 11.1183 1.56692 11.25 1.89844 11.25H9.39844V18.75C9.39844 19.0815 9.53013 19.3995 9.76455 19.6339C9.99897 19.8683 10.3169 20 10.6484 20C10.98 20 11.2979 19.8683 11.5323 19.6339C11.7667 19.3995 11.8984 19.0815 11.8984 18.75V11.25H19.3984C19.73 11.25 20.0479 11.1183 20.2823 10.8839C20.5167 10.6495 20.6484 10.3315 20.6484 10C20.6484 9.66848 20.5167 9.35054 20.2823 9.11612C20.0479 8.8817 19.73 8.75 19.3984 8.75Z" fill="url(#paint0_linear_275_957)"/>
<defs>
<linearGradient id="paint0_linear_275_957" x1="18.4426" y1="-12.3333" x2="-2.18622" y2="-9.31494" gradientUnits="userSpaceOnUse">
<stop stop-color="#A35CD4"/>
<stop offset="1" stop-color="#DE6EB5"/>
</linearGradient>
</defs>
</svg>
