<svg width="20" height="41" viewBox="0 0 20 41" fill="none" xmlns="http://www.w3.org/2000/svg">
<path d="M2.84217 40.9945C2.17626 40.9945 1.53864 40.7608 1.02858 40.3225C0.745218 40.0742 0.50437 39.7818 0.33435 39.4312C0.150162 39.0952 0.051011 38.73 0.00850604 38.3355C-0.0198306 37.9557 0.0226259 37.5758 0.135973 37.2106C0.235151 36.8454 0.419332 36.4949 0.660194 36.2027L13.3551 20.542L1.11368 4.85205C0.872816 4.55987 0.702803 4.20934 0.589456 3.84412C0.490278 3.46429 0.461844 3.08441 0.490181 2.70458C0.532686 2.32475 0.646019 1.94492 0.830207 1.60891C1.00023 1.27291 1.24109 0.965979 1.53862 0.732237C1.83616 0.469277 2.17632 0.264895 2.54469 0.148024C2.91307 0.0165434 3.30971 -0.0274117 3.70642 0.016415C4.08896 0.0602417 4.45737 0.177113 4.79741 0.381638C5.13745 0.586162 5.43498 0.84918 5.67584 1.17058L19.3625 18.7013C19.7734 19.2272 20 19.8846 20 20.5566C20 21.2286 19.7734 21.8861 19.3625 22.412L5.19416 39.9427C4.9108 40.2933 4.54243 40.5709 4.14572 40.7608C3.73484 40.9362 3.28139 41.0237 2.84217 40.9945Z" fill="url(#paint0_linear_275_753)"/>
<defs>
<linearGradient id="paint0_linear_275_753" x1="17.7941" y1="-25.2833" x2="-3.16951" y2="-23.787" gradientUnits="userSpaceOnUse">
<stop stop-color="#A35CD4"/>
<stop offset="1" stop-color="#DE6EB5"/>
</linearGradient>
</defs>
</svg>
