<svg width="20" height="15" viewBox="0 0 20 15" fill="none" xmlns="http://www.w3.org/2000/svg">
<path d="M6.18704 12.158L2.01662 7.98307C1.90757 7.87256 1.77769 7.78483 1.63451 7.72495C1.49134 7.66507 1.33771 7.63423 1.18254 7.63423C1.02737 7.63423 0.873744 7.66507 0.730567 7.72495C0.58739 7.78483 0.45751 7.87256 0.348456 7.98307C0.238071 8.09224 0.150431 8.22226 0.0906156 8.36559C0.0308004 8.50893 0 8.66272 0 8.81806C0 8.9734 0.0308004 9.12719 0.0906156 9.27053C0.150431 9.41386 0.238071 9.54388 0.348456 9.65306L5.34104 14.6511C5.80575 15.1163 6.55642 15.1163 7.02113 14.6511L19.6515 2.01882C19.7619 1.90965 19.8496 1.77963 19.9094 1.6363C19.9692 1.49296 20 1.33917 20 1.18383C20 1.02849 19.9692 0.874697 19.9094 0.731364C19.8496 0.588031 19.7619 0.458009 19.6515 0.348836C19.5425 0.238331 19.4126 0.150595 19.2694 0.0907142C19.1263 0.0308337 18.9726 0 18.8175 0C18.6623 0 18.5087 0.0308337 18.3655 0.0907142C18.2223 0.150595 18.0924 0.238331 17.9834 0.348836L6.18704 12.158Z" fill="url(#paint0_linear_275_582)"/>
<defs>
<linearGradient id="paint0_linear_275_582" x1="17.7941" y1="-9.25" x2="-2.50374" y2="-5.29003" gradientUnits="userSpaceOnUse">
<stop stop-color="#A35CD4"/>
<stop offset="1" stop-color="#DE6EB5"/>
</linearGradient>
</defs>
</svg>
