<svg width="51" height="31" viewBox="0 0 51 31" fill="none" xmlns="http://www.w3.org/2000/svg">
<path d="M46.1241 3.56347C46.2784 3.30024 46.4833 3.07024 46.727 2.88678C46.9707 2.70332 47.2483 2.57002 47.5437 2.4946C47.8392 2.41918 48.1466 2.40312 48.4483 2.44737C48.75 2.49162 49.0399 2.59528 49.3013 2.75238C49.5627 2.90947 49.7905 3.11687 49.9713 3.3626C50.1522 3.60833 50.2826 3.8875 50.355 4.18399C50.4274 4.48047 50.4404 4.78839 50.3932 5.08993C50.346 5.39147 50.2396 5.68067 50.0801 5.94079C47.5945 10.0888 44.589 13.1467 40.4361 15.1175C36.3447 17.0575 31.3458 17.8397 25.0302 17.8397L8.29541 17.8397L16.6628 26.2158C16.8895 26.4272 17.0713 26.6822 17.1974 26.9655C17.3235 27.2488 17.3913 27.5546 17.3968 27.8647C17.4022 28.1748 17.3453 28.4829 17.2292 28.7704C17.1132 29.058 16.9405 29.3193 16.7214 29.5386C16.5023 29.7579 16.2413 29.9308 15.954 30.0469C15.6668 30.1631 15.359 30.2202 15.0492 30.2147C14.7395 30.2092 14.4339 30.1413 14.1509 30.0151C13.8679 29.8889 13.6132 29.7069 13.402 29.48L1.09699 17.1622C0.664925 16.7292 0.422242 16.1422 0.422242 15.5301C0.422242 14.9181 0.664925 14.3311 1.09699 13.898L13.402 1.58031C13.8394 1.17235 14.4178 0.950254 15.0155 0.960811C15.6133 0.971368 16.1836 1.21375 16.6063 1.63691C17.029 2.06006 17.2711 2.63094 17.2817 3.22928C17.2922 3.82762 17.0704 4.40669 16.6628 4.84451L8.29541 13.2206L25.0302 13.2206C31.0197 13.2206 35.2464 12.4661 38.4611 10.9418C41.6174 9.44518 43.9953 7.11405 46.121 3.56347L46.1241 3.56347Z" fill="white"/>
</svg>
